HIERARCHY
ROOT ui
{
	 OFFSET 0 0 0
	 CHANNELS 3 XPosition YPosition Z Position
	 EndSite
	 {
	 OFFSET 0 -1 0
	 }
}
ROOT li
{
	 OFFSET 0 0 0
	 CHANNELS 3 XPosition YPosition Z Position
	 EndSite
	 {
	 OFFSET 0 -1 0
	 }
}
ROOT ul
{
	 OFFSET 0 0 0
	 CHANNELS 3 XPosition YPosition Z Position
	 EndSite
	 {
	 OFFSET 0 -1 0
	 }
}
ROOT ll
{
	 OFFSET 0 0 0
	 CHANNELS 3 XPosition YPosition Z Position
	 EndSite
	 {
	 OFFSET 0 -1 0
	 }
}
ROOT tt
{
	 OFFSET 0 0 0
	 CHANNELS 3 XPosition YPosition Z Position
	 EndSite
	 {
	 OFFSET 0 -1 0
	 }
}
ROOT tb
{
	 OFFSET 0 0 0
	 CHANNELS 3 XPosition YPosition Z Position
	 EndSite
	 {
	 OFFSET 0 -1 0
	 }
}
ROOT td
{
	 OFFSET 0 0 0
	 CHANNELS 3 XPosition YPosition Z Position
	 EndSite
	 {
	 OFFSET 0 -1 0
	 }
}
ROOT v
{
	 OFFSET 0 0 0
	 CHANNELS 3 XPosition YPosition Z Position
	 EndSite
	 {
	 OFFSET 0 -1 0
	 }
}
ROOT bn
{
	 OFFSET 0 0 0
	 CHANNELS 3 XPosition YPosition Z Position
	 EndSite
	 {
	 OFFSET 0 -1 0
	 }
}
MOTION
Frames: 27
Frame Time: 0.002
-0.023154279708862305	-0.0020501739978790283	0		0.5390361328125	-2.55860400390625	0		-0.9383287353515625	0.29998403930664064	0		-0.5637151489257812	-2.83957470703125	0		1.3801873779296876	-0.7251387329101563	0		2.9484482421875	-0.2337662353515625	0		4.1380576171875	-0.08423600769042969	0		6.014833984375	0.49709405517578126	0		-0.005416556835174561	5.9634599609375	0		
0.0027119240760803223	-0.0022074329853057862	0		0.59161962890625	-2.564248046875	0		-0.907357666015625	0.304814208984375	0		-0.57388134765625	-2.828099365234375	0		1.386115966796875	-0.71807568359375	0		2.92836865234375	-0.2293955078125	0		4.154017578125	-0.07854966735839844	0		6.02274072265625	0.49676846313476564	0		-0.13943177795410155	5.94393798828125	0		
-0.023465612411499023	-0.0015025889873504638	0		0.540349365234375	-2.556179443359375	0		-0.9385918579101562	0.30067776489257814	0		-0.561413818359375	-2.834990966796875	0		1.3919906005859375	-0.7110156860351563	0		2.942497802734375	-0.20959719848632813	0		4.153896484375	-0.07461897277832032	0		6.01045361328125	0.4877448425292969	0		-0.13813755798339844	5.9432080078125	0		
0.009413857460021973	0.00523094892501831	0		0.5719698486328125	-2.551478759765625	0		-0.9237496948242188	0.3037921142578125	0		-0.6324544677734375	-2.80748291015625	0		1.4039266357421876	-0.6970589599609375	0		2.995106689453125	-0.21845640563964844	0		4.179720703125	-0.07113788604736328	0		6.01539697265625	0.4954104919433594	0		-0.12071372222900391	5.9512177734375	0		
-0.012814529418945312	0.008885334014892578	0		0.5485691528320312	-2.54386083984375	0		-0.892924072265625	0.30864715576171875	0		-0.559043212890625	-2.810373291015625	0		1.4567725830078124	-0.685790771484375	0		2.988256591796875	-0.1913357696533203	0		4.18353173828125	-0.06530918884277344	0		6.0151611328125	0.49513507080078123	0		0.009977956771850587	5.9753388671875	0		
0.001686769962310791	-0.0010709010362625123	0		0.5620047607421875	-2.54285693359375	0		-0.9132033081054688	0.31036468505859377	0		-0.5813595581054688	-2.7926572265625	0		1.4563758544921874	-0.6856405029296875	0		3.0148037109375	-0.1977894287109375	0		4.2081923828125	-0.0658475341796875	0		6.01874560546875	0.4867711181640625	0		-0.1373151397705078	5.94410888671875	0		
-0.024681873321533203	-3.336830139160156E-4	0		0.5634054565429687	-2.5406513671875	0		-0.8415540771484376	0.3095369262695313	0		-0.5450402221679688	-2.79392626953125	0		1.4533231201171875	-0.6624449462890625	0		3.0155634765625	-0.1888192596435547	0		4.2167783203125	-0.06813349151611328	0		6.0055771484375	0.49567041015625	0		-0.13707827758789062	5.94442041015625	0		
9.05098021030426E-4	-4.7503098845481874E-4	0		0.5378157958984375	-2.5349873046875	0		-0.9139200439453125	0.3111512451171875	0		-0.6464754028320312	-2.776851806640625	0		1.465080322265625	-0.6485065307617187	0		3.075006103515625	-0.19686085510253906	0		4.22046337890625	-0.062350486755371096	0		6.00906640625	0.48626602172851563	0		-0.13587472534179687	5.943716796875	0		
0.004518058776855469	0.002753880977630615	0		0.5422227783203125	-2.527834228515625	0		-0.9462509155273438	0.3160960693359375	0		-0.5691909790039062	-2.775821044921875	0		1.47682763671875	-0.633574951171875	0		3.0551328125	-0.16255792236328126	0		4.23308544921875	-0.0587327651977539	0		6.008681640625	0.4859135437011719	0		-0.1347035369873047	5.9420126953125	0		
0.004061388969421387	0.003048011064529419	0		0.534681640625	-2.516479248046875	0		-0.9106788940429688	0.31587265014648436	0		-0.643559326171875	-2.752191162109375	0		1.48854150390625	-0.6196500244140625	0		3.0884287109375	-0.17618009948730468	0		4.2425859375	-0.06107072448730469	0		6.0204306640625	0.4943463134765625	0		-0.0021371688842773437	5.96304150390625	0		
-4.567579925060272E-4	4.0572398900985717E-4	0		0.559888671875	-2.51969921875	0		-0.9151807861328125	0.31232867431640626	0		-0.57240185546875	-2.7570830078125	0		1.4851820068359376	-0.6094708862304687	0		3.11226904296875	-0.15764254760742188	0		4.2421123046875	-0.061237594604492185	0		6.0200166015625	0.49398873901367185	0		-0.0019644659757614134	5.963330078125	0		
-9.252939820289612E-4	6.842430233955383E-4	0		0.49581356811523436	-2.4813671875	0		-0.9156168823242188	0.3127024230957031	0		-0.62369580078125	-2.7298583984375	0		1.5089256591796876	-0.5937685546875	0		3.092856689453125	-0.1533569793701172	0		4.2594951171875	-0.06971385192871093	0		6.02858056640625	0.49248342895507813	0		-0.001812168002128601	5.96360888671875	0		
-0.0013871090412139893	9.492189884185791E-4	0		0.5251344604492187	-2.479678955078125	0		-0.9160475463867187	0.3130586853027344	0		-0.655267333984375	-2.71998828125	0		1.500669189453125	-0.57851611328125	0		3.114393798828125	-0.15278729248046874	0		4.25909619140625	-0.06587476348876953	0		6.01118798828125	0.49344491577148436	0		-0.13406230163574218	5.9431953125	0		
0.008005622863769532	-0.007978359222412109	0		0.5321689453125	-2.495619873046875	0		-0.907324951171875	0.3212327880859375	0		-0.6349575805664063	-2.719049560546875	0		1.5534063720703124	-0.5653486938476563	0		3.150014892578125	-0.14847128295898437	0		4.2727294921875	-0.061278797149658205	0		6.01976904296875	0.4919640808105469	0		0.015595600128173829	5.97281982421875	0		
0.01468607997894287	-0.0018777070045471191	0		0.533019287109375	-2.467462890625	0		-0.9036502075195313	0.32546841430664064	0		-0.650177734375	-2.69350439453125	0		1.534413818359375	-0.5379275512695313	0		3.1458798828125	-0.13145677185058594	0		4.2932431640625	-0.06480464935302735	0		6.02324609375	0.483585205078125	0		-0.11864859771728516	5.95442578125	0		
-0.0026531620025634765	0.001626539945602417	0		0.5064600219726563	-2.4648408203125	0		-0.8511517944335938	0.31780227661132815	0		-0.5768428955078125	-2.696566650390625	0		1.596999755859375	-0.5369747314453125	0		3.147402099609375	-0.13554872131347656	0		4.29284228515625	-0.06495633697509766	0		6.01005322265625	0.49252093505859373	0		-0.0013567620515823363	5.96455078125	0		
0.006822311878204345	-0.007373591899871826	0		0.530818115234375	-2.470148681640625	0		-0.8514896850585938	0.3180439147949219	0		-0.65505615234375	-2.675952392578125	0		1.56092529296875	-0.5182767333984375	0		3.17006201171875	-0.1340216522216797	0		4.3054736328125	-0.06533657836914063	0		6.02256494140625	0.4830122375488281	0		-0.001267469048500061	5.96472802734375	0		
-0.003340203046798706	0.0019542759656906127	0		0.507453369140625	-2.462622802734375	0		-0.8467222290039063	0.32216171264648436	0		-0.6124816284179687	-2.671531005859375	0		1.606682861328125	-0.5120611572265625	0		3.183779052734375	-0.13134039306640624	0		4.3141064453125	-0.06764229583740235	0		6.01041845703125	0.49096484375	0		-0.13357698059082032	5.94425439453125	0		
-0.0036260690689086912	0.002076369047164917	0		0.5111070556640624	-2.457604736328125	0		-0.9149053955078125	0.3275605773925781	0		-0.6746315307617188	-2.654256591796875	0		1.57683935546875	-0.48550030517578124	0		3.205914306640625	-0.10781278991699218	0		4.32277880859375	-0.06994483947753906	0		6.0181611328125	0.4905768127441406	0		-0.11830540466308594	5.95511181640625	0		
0.013073145866394043	-0.0011375789642333984	0		0.513823486328125	-2.452593994140625	0		-0.83809033203125	0.3293086853027344	0		-0.5980280151367188	-2.6555205078125	0		1.6118896484375	-0.4681265563964844	0		3.217572265625	-0.11310530853271485	0		4.3266572265625	-0.063153564453125	0		6.02594189453125	0.49020745849609376	0		-5.5482998490333555E-5	5.9640751953125	0		
-0.0040690298080444335	0.002232156991958618	0		0.5046631469726562	-2.444391845703125	0		-0.91531689453125	0.32780438232421877	0		-0.6848218383789062	-2.625859375	0		1.618813720703125	-0.46026278686523436	0		3.24079931640625	-0.08960459136962891	0		4.3442890625	-0.07260540771484375	0		6.021927734375	0.4990769653320313	0		-9.750630259513855E-4	5.96515576171875	0		
-0.004221883773803711	0.0022634739875793458	0		0.5044265747070312	-2.4443779296875	0		-0.8534688720703125	0.3267408447265625	0		-0.6229840698242187	-2.621931396484375	0		1.624771240234375	-0.45339715576171874	0		3.22464599609375	-0.08939372253417968	0		4.34413330078125	-0.07272289276123046	0		6.0217919921875	0.49890206909179685	0		-9.238640069961548E-4	5.96518701171875	0		
0.0024356920719146727	-0.010863286972045898	0		0.5151514282226562	-2.450591064453125	0		-0.9204819946289062	0.3319776611328125	0		-0.677089111328125	-2.6179365234375	0		1.6338720703125	-0.44160391235351565	0		3.2286474609375	-0.08354740142822266	0		4.35298876953125	-0.07499333190917969	0		6.0226806640625	0.49773626708984375	0		-0.16638417053222657	5.93919091796875	0		
-0.0043815522193908696	0.0022262029647827147	0		0.512335693359375	-2.435581787109375	0		-0.9105338745117187	0.3317728576660156	0		-0.6428951416015625	-2.602584228515625	0		1.644009521484375	-0.4308464050292969	0		3.2516240234375	-0.08204738616943359	0		4.35402392578125	-0.07010919189453126	0		6.0347763671875	0.5053962707519531	0		0.016305822372436524	5.9738388671875	0		
0.012558426856994629	-0.001152878999710083	0		0.5065622863769531	-2.422546630859375	0		-0.9113895263671875	0.33972274780273437	0		-0.6707018432617188	-2.591144287109375	0		1.6470777587890626	-0.4269775085449219	0		3.251021728515625	-0.060114208221435546	0		4.36700048828125	-0.07143087005615234	0		6.03093994140625	0.5143765869140625	0		0.014360629081726074	5.9758046875	0		
0.005501718997955323	-0.007128739833831787	0		0.5025592041015625	-2.426573974609375	0		-0.8542591552734375	0.34357373046875	0		-0.6475626220703125	-2.587672607421875	0		1.6422421875	-0.4209797973632812	0		3.24094775390625	-0.06701161956787109	0		4.36121728515625	-0.062395549774169924	0		6.0258427734375	0.50640869140625	0		-0.015027312278747559	5.95423193359375	0		
-0.004227258205413818	0.0019139289855957032	0		0.5027080993652344	-2.42670263671875	0		-0.8492332153320312	0.33933056640625	0		-0.68133251953125	-2.58320458984375	0		1.6423553466796874	-0.42108822631835935	0		3.25703369140625	-0.06838224029541015	0		4.35005322265625	-0.07725305938720703	0		6.025939453125	0.50637841796875	0		-0.0159913330078125	5.95611181640625	0		
